<svg fill="none" xmlns="http://www.w3.org/2000/svg" class="Header_logo__vPR6R"><path d="M0 16.834h2.997V4.208H0v12.626ZM4.913 16.834H7.91V9.157c0-1.554 1.043-2.606 2.334-2.606 1.267 0 2.136.847 2.136 2.145v8.138h2.939V8.959c0-1.422.852-2.408 2.301-2.408 1.209 0 2.169.707 2.169 2.269v8.014h3.005V8.359c0-2.819-1.64-4.315-3.974-4.315-1.846 0-3.253.904-3.816 2.31h-.132c-.489-1.43-1.722-2.31-3.436-2.31-1.705 0-2.98.871-3.51 2.31h-.149V4.208H4.913v12.626ZM60.547 11.524c0 1.923-1.382 2.877-2.707 2.877-1.44 0-2.4-1.011-2.4-2.614V4.208h-2.997v8.04c0 3.032 1.738 4.75 4.238 4.75 1.904 0 3.245-.994 3.825-2.408h.132v2.244h2.906V4.208h-2.997v7.316ZM68.457 0H65.46v16.834h2.997V0ZM80.423 7.546c-.414-2.137-2.136-3.502-5.116-3.502-3.063 0-5.15 1.496-5.141 3.83-.009 1.842 1.134 3.058 3.576 3.56l2.169.452c1.167.254 1.713.723 1.713 1.438 0 .863-.943 1.512-2.367 1.512-1.374 0-2.268-.591-2.525-1.726l-2.922.28c.372 2.318 2.334 3.69 5.455 3.69 3.18 0 5.422-1.635 5.43-4.027-.007-1.8-1.175-2.902-3.575-3.42l-2.17-.46c-1.29-.288-1.804-.731-1.796-1.463-.008-.855.944-1.447 2.194-1.447 1.383 0 2.111.748 2.343 1.579l2.732-.296Z" fill="#FFFFFF"/><path fill-rule="evenodd" clip-rule="evenodd" d="M88.31 14.467c2.126 0 3.85-1.712 3.85-3.823 0-2.112-1.724-3.824-3.85-3.824-2.127 0-3.851 1.712-3.851 3.824 0 2.111 1.724 3.823 3.85 3.823Zm0 2.73c3.645 0 6.6-2.933 6.6-6.553s-2.955-6.555-6.6-6.555c-3.646 0-6.602 2.935-6.602 6.555 0 3.62 2.956 6.554 6.601 6.554Z" fill="#FFFFFF"/><path d="M27.35 4.169h-2.717v16.856h2.717V4.169ZM48.144 10.694a3.805 3.805 0 0 1-3.803 3.806v2.718a6.523 6.523 0 0 0 6.52-6.524 6.523 6.523 0 0 0-6.52-6.525v2.718c2.1 0 3.803 1.704 3.803 3.807ZM41.624 10.694A3.805 3.805 0 0 1 37.82 14.5v2.718a6.523 6.523 0 0 0 6.52-6.524 6.523 6.523 0 0 0-6.52-6.525v2.718c2.1 0 3.804 1.704 3.804 3.807ZM34.958 10.694a3.805 3.805 0 0 1-3.804 3.806v2.718a6.523 6.523 0 0 0 6.52-6.524 6.523 6.523 0 0 0-6.52-6.525v2.718c2.1 0 3.804 1.704 3.804 3.807Z" fill="#FFFFFF"/><path d="M27.35 10.694a3.805 3.805 0 0 0 3.804 3.806v2.718a6.523 6.523 0 0 1-6.52-6.524 6.523 6.523 0 0 1 6.52-6.525v2.718a3.805 3.805 0 0 0-3.804 3.807Z" fill="#FFFFFF"/><path fill-rule="evenodd" clip-rule="evenodd" d="M117.412 14.899c2.084 0 3.774-1.711 3.774-3.823 0-2.11-1.69-3.822-3.774-3.822s-3.774 1.711-3.774 3.822c0 2.111 1.69 3.823 3.774 3.823Zm0 2.73c3.573 0 6.469-2.934 6.469-6.553 0-3.619-2.896-6.553-6.469-6.553-3.573 0-6.47 2.934-6.47 6.553 0 3.62 2.897 6.553 6.47 6.553Z" fill="#2EA6BC"/><path d="M106.592 4.523h2.696V17.63h-2.696V4.523Z" fill="#2EA6BC"/><path fill-rule="evenodd" clip-rule="evenodd" d="M102.818 14.899c2.084 0 3.774-1.711 3.774-3.823 0-2.11-1.69-3.822-3.774-3.822s-3.774 1.711-3.774 3.822c0 2.111 1.69 3.823 3.774 3.823Zm0 2.73c3.573 0 6.47-2.934 6.47-6.553 0-3.619-2.897-6.553-6.47-6.553s-6.47 2.934-6.47 6.553c0 3.62 2.897 6.553 6.47 6.553Z" fill="#2EA6BC"/><path d="M99.048 17.63c.094 2.026 1.746 3.64 3.77 3.64s3.676-1.614 3.77-3.64h2.697c-.095 3.534-2.954 6.37-6.467 6.37-3.513 0-6.372-2.836-6.467-6.37h2.697ZM134.301 4.354H137l-5.229 13.21h-2.699l5.229-13.21Z" fill="#2EA6BC"/><path d="M123.843 4.354h2.699l5.229 13.21h-2.699l-5.229-13.21Z" fill="#2EA6BC"/></svg>